<?xml version="1.0" encoding="us-ascii" standalone="no"?><svg xmlns="http://www.w3.org/2000/svg" xmlns:xlink="http://www.w3.org/1999/xlink" contentStyleType="text/css" height="332px" preserveAspectRatio="none" style="width:680px;height:332px;background:#FFFFFF;" version="1.1" viewBox="0 0 680 332" width="680px" zoomAndPan="magnify"><defs/><g><text fill="#000000" font-family="sans-serif" font-size="14" font-weight="bold" lengthAdjust="spacing" textLength="115" x="281" y="32.9951">AWS - Support</text><rect fill="#F8F8FF" height="36.2969" rx="12.5" ry="12.5" style="stroke:#181818;stroke-width:1.5;" width="75" x="10" y="159.3359"/><text fill="#000000" font-family="sans-serif" font-size="14" lengthAdjust="spacing" textLength="55" x="20" y="182.3311">Support</text><rect fill="#D3D3D3" height="36.2969" rx="12.5" ry="12.5" style="stroke:#181818;stroke-width:1.5;" width="91" x="135" y="57.2969"/><text fill="#000000" font-family="sans-serif" font-size="14" lengthAdjust="spacing" textLength="71" x="145" y="80.292">Developer</text><text fill="#000000" font-family="sans-serif" font-size="14" lengthAdjust="spacing" textLength="161" x="279" y="61.9951">Business Time Support</text><path d="M226,75.4453 L236,75.4453 C251,75.4453 251,57.1484 266,57.1484 L276,57.1484 " fill="none" style="stroke:#181818;stroke-width:1.0;"/><text fill="#000000" font-family="sans-serif" font-size="14" lengthAdjust="spacing" textLength="179" x="279" y="80.292">SLA: &lt; 24h &lt; 12h System</text><path d="M226,75.4453 L236,75.4453 C251,75.4453 251,75.4453 266,75.4453 L276,75.4453 " fill="none" style="stroke:#181818;stroke-width:1.0;"/><text fill="#000000" font-family="sans-serif" font-size="14" lengthAdjust="spacing" textLength="112" x="279" y="98.5889">Doubts: general</text><path d="M226,75.4453 L236,75.4453 C251,75.4453 251,93.7422 266,93.7422 L276,93.7422 " fill="none" style="stroke:#181818;stroke-width:1.0;"/><path d="M85,177.4844 L95,177.4844 C110,177.4844 110,75.4453 125,75.4453 L135,75.4453 " fill="none" style="stroke:#181818;stroke-width:1.0;"/><rect fill="#D3D3D3" height="36.2969" rx="12.5" ry="12.5" style="stroke:#181818;stroke-width:1.5;" width="84" x="135" y="131.1875"/><text fill="#000000" font-family="sans-serif" font-size="14" lengthAdjust="spacing" textLength="64" x="145" y="154.1826">Business</text><text fill="#000000" font-family="sans-serif" font-size="14" lengthAdjust="spacing" textLength="34" x="272" y="117.5889">24x7</text><path d="M219,149.3359 L229,149.3359 C244,149.3359 244,112.7422 259,112.7422 L269,112.7422 " fill="none" style="stroke:#181818;stroke-width:1.0;"/><text fill="#000000" font-family="sans-serif" font-size="14" lengthAdjust="spacing" textLength="24" x="272" y="135.8857">IAM</text><path d="M219,149.3359 L229,149.3359 C244,149.3359 244,131.0391 259,131.0391 L269,131.0391 " fill="none" style="stroke:#181818;stroke-width:1.0;"/><text fill="#000000" font-family="sans-serif" font-size="14" lengthAdjust="spacing" textLength="36" x="272" y="154.1826">Slack</text><path d="M219,149.3359 L229,149.3359 C244,149.3359 244,149.3359 259,149.3359 L269,149.3359 " fill="none" style="stroke:#181818;stroke-width:1.0;"/><text fill="#000000" font-family="sans-serif" font-size="14" lengthAdjust="spacing" textLength="264" x="272" y="172.4795">SLA: &lt; 24h &lt; 4h System &lt; 1h Inactive</text><path d="M219,149.3359 L229,149.3359 C244,149.3359 244,167.6328 259,167.6328 L269,167.6328 " fill="none" style="stroke:#181818;stroke-width:1.0;"/><text fill="#000000" font-family="sans-serif" font-size="14" lengthAdjust="spacing" textLength="123" x="272" y="190.7764">Doubts: use case</text><path d="M219,149.3359 L229,149.3359 C244,149.3359 244,185.9297 259,185.9297 L269,185.9297 " fill="none" style="stroke:#181818;stroke-width:1.0;"/><path d="M85,177.4844 L95,177.4844 C110,177.4844 110,149.3359 125,149.3359 L135,149.3359 " fill="none" style="stroke:#181818;stroke-width:1.0;"/><rect fill="#D3D3D3" height="36.2969" rx="12.5" ry="12.5" style="stroke:#181818;stroke-width:1.5;" width="153" x="135" y="205.0781"/><text fill="#000000" font-family="sans-serif" font-size="14" lengthAdjust="spacing" textLength="133" x="145" y="228.0732">Enterprise on-ramp</text><text fill="#000000" font-family="sans-serif" font-size="14" lengthAdjust="spacing" textLength="327" x="341" y="218.9248">SLA: &lt; 24h &lt; 4h System &lt; 1h Inactive &lt; 30min</text><path d="M288,223.2266 L298,223.2266 C313,223.2266 313,214.0781 328,214.0781 L338,214.0781 " fill="none" style="stroke:#181818;stroke-width:1.0;"/><text fill="#000000" font-family="sans-serif" font-size="14" lengthAdjust="spacing" textLength="180" x="341" y="237.2217">Doubts: 1 analysis by year</text><path d="M288,223.2266 L298,223.2266 C313,223.2266 313,232.375 328,232.375 L338,232.375 " fill="none" style="stroke:#181818;stroke-width:1.0;"/><path d="M85,177.4844 L95,177.4844 C110,177.4844 110,223.2266 125,223.2266 L135,223.2266 " fill="none" style="stroke:#181818;stroke-width:1.0;"/><rect fill="#D3D3D3" height="36.2969" rx="12.5" ry="12.5" style="stroke:#181818;stroke-width:1.5;" width="91" x="135" y="261.375"/><text fill="#000000" font-family="sans-serif" font-size="14" lengthAdjust="spacing" textLength="71" x="145" y="284.3701">Enterprise</text><text fill="#000000" font-family="sans-serif" font-size="14" lengthAdjust="spacing" textLength="327" x="279" y="275.2217">SLA: &lt; 24h &lt; 4h System &lt; 1h Inactive &lt; 15min</text><path d="M226,279.5234 L236,279.5234 C251,279.5234 251,270.375 266,270.375 L276,270.375 " fill="none" style="stroke:#181818;stroke-width:1.0;"/><text fill="#000000" font-family="sans-serif" font-size="14" lengthAdjust="spacing" textLength="185" x="279" y="293.5186">Doubts: 1 analysis anytime</text><path d="M226,279.5234 L236,279.5234 C251,279.5234 251,288.6719 266,288.6719 L276,288.6719 " fill="none" style="stroke:#181818;stroke-width:1.0;"/><path d="M85,177.4844 L95,177.4844 C110,177.4844 110,279.5234 125,279.5234 L135,279.5234 " fill="none" style="stroke:#181818;stroke-width:1.0;"/><text fill="#888888" font-family="sans-serif" font-size="10" lengthAdjust="spacing" textLength="230" x="223.5" y="316.9541">Dispon&#237;vel em: https://github.com/acnaweb/aws</text><!--SRC=[bPBRQjmm48RlzHH3UhCRs9FZ732zo6utcoRO468dlIYXZBqJMzIMZ3HoweVgK_J5git6XP0IMWH2cd_qVv9cpYsZuKQgROEj42ov9ZXOVabX0gbhMstuG3ngpMHWBMshrQ-V7TL0JGGLSskZsQoKNBbyMkXcXeN29yfd-6I5EFpwONFcn-PXiF8n7unbMV6bmVu1rkJDT4l62uVVOEMiL6GjPBAXFuUUfJHUHl0HWh3oyoAe8EqjKxCNrzhbR2CeIP71-WrcyDrd1-6Fq_tgQfcykDTOVFyBA1muEsW5LmeBbXszfZfBKA2bDzWBvR-jDTBhMaqCDks_8_pkQExhyXgr05HOzrPQo7le2SqxqF-2BOxVWw7gsPT4Y7FodJ9qoqsDYk-I63eoLce5Ysam3yBfqIYh76mezwwmE8d2UJG_XjLj1ZjvB4QNDt4NWDNE50HRQTd8tB5t68jhx11kdThX8jZjHbaoXlHY2Fe7Tj9erP1YSNsVx9FWi-QqrVoSV19ELf8X9UCl1lU9MDCZkfhzqK9lfIeZkCisapCHeoeTbXv4IdpI7c1whwM_0G00]--></g></svg>