<?xml version="1.0" encoding="us-ascii" standalone="no"?><svg xmlns="http://www.w3.org/2000/svg" xmlns:xlink="http://www.w3.org/1999/xlink" contentStyleType="text/css" height="508px" preserveAspectRatio="none" style="width:570px;height:508px;background:#FFFFFF;" version="1.1" viewBox="0 0 570 508" width="570px" zoomAndPan="magnify"><defs/><g><text fill="#000000" font-family="sans-serif" font-size="14" font-weight="bold" lengthAdjust="spacing" textLength="80" x="243.5" y="32.9951">AWS - IAM</text><rect fill="#F8F8FF" height="36.2969" rx="12.5" ry="12.5" style="stroke:#181818;stroke-width:1.5;" width="44" x="10" y="247.6523"/><text fill="#000000" font-family="sans-serif" font-size="14" lengthAdjust="spacing" textLength="24" x="20" y="270.6475">IAM</text><rect fill="#D3D3D3" height="36.2969" rx="12.5" ry="12.5" style="stroke:#181818;stroke-width:1.5;" width="60" x="104" y="57.2969"/><text fill="#000000" font-family="sans-serif" font-size="14" lengthAdjust="spacing" textLength="40" x="114" y="80.292">Users</text><text fill="#000000" font-family="sans-serif" font-size="14" lengthAdjust="spacing" textLength="7" x="217" y="80.292">x</text><path d="M164,75.4453 L174,75.4453 C189,75.4453 189,75.4453 204,75.4453 L214,75.4453 " fill="none" style="stroke:#181818;stroke-width:1.0;"/><path d="M54,265.8008 L64,265.8008 C79,265.8008 79,75.4453 94,75.4453 L104,75.4453 " fill="none" style="stroke:#181818;stroke-width:1.0;"/><rect fill="#D3D3D3" height="36.2969" rx="12.5" ry="12.5" style="stroke:#181818;stroke-width:1.5;" width="71" x="104" y="113.5938"/><text fill="#000000" font-family="sans-serif" font-size="14" lengthAdjust="spacing" textLength="51" x="114" y="136.5889">Groups</text><text fill="#000000" font-family="sans-serif" font-size="14" lengthAdjust="spacing" textLength="61" x="228" y="127.4404">To users</text><path d="M175,131.7422 L185,131.7422 C200,131.7422 200,122.5938 215,122.5938 L225,122.5938 " fill="none" style="stroke:#181818;stroke-width:1.0;"/><text fill="#000000" font-family="sans-serif" font-size="14" lengthAdjust="spacing" textLength="177" x="228" y="145.7373">Access services (policies)</text><path d="M175,131.7422 L185,131.7422 C200,131.7422 200,140.8906 215,140.8906 L225,140.8906 " fill="none" style="stroke:#181818;stroke-width:1.0;"/><path d="M54,265.8008 L64,265.8008 C79,265.8008 79,131.7422 94,131.7422 L104,131.7422 " fill="none" style="stroke:#181818;stroke-width:1.0;"/><rect fill="#D3D3D3" height="36.2969" rx="12.5" ry="12.5" style="stroke:#181818;stroke-width:1.5;" width="59" x="104" y="169.8906"/><text fill="#000000" font-family="sans-serif" font-size="14" lengthAdjust="spacing" textLength="39" x="114" y="192.8857">Roles</text><text fill="#000000" font-family="sans-serif" font-size="14" lengthAdjust="spacing" textLength="79" x="216" y="192.8857">To services</text><path d="M163,188.0391 L173,188.0391 C188,188.0391 188,188.0391 203,188.0391 L213,188.0391 " fill="none" style="stroke:#181818;stroke-width:1.0;"/><path d="M54,265.8008 L64,265.8008 C79,265.8008 79,188.0391 94,188.0391 L104,188.0391 " fill="none" style="stroke:#181818;stroke-width:1.0;"/><rect fill="#D3D3D3" height="36.2969" rx="12.5" ry="12.5" style="stroke:#181818;stroke-width:1.5;" width="72" x="104" y="226.1875"/><text fill="#000000" font-family="sans-serif" font-size="14" lengthAdjust="spacing" textLength="52" x="114" y="249.1826">Policies</text><text fill="#000000" font-family="sans-serif" font-size="14" lengthAdjust="spacing" textLength="216" x="229" y="212.5889">Effect (At Actions): Allow/Denny</text><path d="M176,244.3359 L186,244.3359 C201,244.3359 201,207.7422 216,207.7422 L226,207.7422 " fill="none" style="stroke:#181818;stroke-width:1.0;"/><text fill="#000000" font-family="sans-serif" font-size="14" lengthAdjust="spacing" textLength="324" x="229" y="230.8857">Action (What endpoints GET/POST): On service</text><path d="M176,244.3359 L186,244.3359 C201,244.3359 201,226.0391 216,226.0391 L226,226.0391 " fill="none" style="stroke:#181818;stroke-width:1.0;"/><text fill="#000000" font-family="sans-serif" font-size="14" lengthAdjust="spacing" textLength="314" x="229" y="249.1826">Resource (Who will Consumer): users/groups</text><path d="M176,244.3359 L186,244.3359 C201,244.3359 201,244.3359 216,244.3359 L226,244.3359 " fill="none" style="stroke:#181818;stroke-width:1.0;"/><text fill="#000000" font-family="sans-serif" font-size="14" lengthAdjust="spacing" textLength="269" x="229" y="267.4795">Used on groups | users | organizations</text><path d="M176,244.3359 L186,244.3359 C201,244.3359 201,262.6328 216,262.6328 L226,262.6328 " fill="none" style="stroke:#181818;stroke-width:1.0;"/><text fill="#000000" font-family="sans-serif" font-size="14" lengthAdjust="spacing" textLength="29" x="229" y="285.7764">Json</text><path d="M176,244.3359 L186,244.3359 C201,244.3359 201,280.9297 216,280.9297 L226,280.9297 " fill="none" style="stroke:#181818;stroke-width:1.0;"/><path d="M54,265.8008 L64,265.8008 C79,265.8008 79,244.3359 94,244.3359 L104,244.3359 " fill="none" style="stroke:#181818;stroke-width:1.0;"/><rect fill="#D3D3D3" height="36.2969" rx="12.5" ry="12.5" style="stroke:#181818;stroke-width:1.5;" width="49" x="104" y="308.5234"/><text fill="#000000" font-family="sans-serif" font-size="14" lengthAdjust="spacing" textLength="29" x="114" y="331.5186">MFA</text><text fill="#000000" font-family="sans-serif" font-size="14" lengthAdjust="spacing" textLength="117" x="206" y="304.0732">Increase security</text><path d="M153,326.6719 L163,326.6719 C178,326.6719 178,299.2266 193,299.2266 L203,299.2266 " fill="none" style="stroke:#181818;stroke-width:1.0;"/><text fill="#000000" font-family="sans-serif" font-size="14" lengthAdjust="spacing" textLength="55" x="206" y="322.3701">30 secs</text><path d="M153,326.6719 L163,326.6719 C178,326.6719 178,317.5234 193,317.5234 L203,317.5234 " fill="none" style="stroke:#181818;stroke-width:1.0;"/><text fill="#000000" font-family="sans-serif" font-size="14" lengthAdjust="spacing" textLength="45" x="206" y="340.667">Mobile</text><path d="M153,326.6719 L163,326.6719 C178,326.6719 178,335.8203 193,335.8203 L203,335.8203 " fill="none" style="stroke:#181818;stroke-width:1.0;"/><text fill="#000000" font-family="sans-serif" font-size="14" lengthAdjust="spacing" textLength="50" x="206" y="358.9639">6 digits</text><path d="M153,326.6719 L163,326.6719 C178,326.6719 178,354.1172 193,354.1172 L203,354.1172 " fill="none" style="stroke:#181818;stroke-width:1.0;"/><path d="M54,265.8008 L64,265.8008 C79,265.8008 79,326.6719 94,326.6719 L104,326.6719 " fill="none" style="stroke:#181818;stroke-width:1.0;"/><rect fill="#D3D3D3" height="36.2969" rx="12.5" ry="12.5" style="stroke:#181818;stroke-width:1.5;" width="150" x="104" y="381.7109"/><text fill="#000000" font-family="sans-serif" font-size="14" lengthAdjust="spacing" textLength="130" x="114" y="404.7061">Organizations (OU)</text><text fill="#000000" font-family="sans-serif" font-size="14" lengthAdjust="spacing" textLength="251" x="307" y="377.2607">Sub Accounts (UF, depto, customer)</text><path d="M254,399.8594 L264,399.8594 C279,399.8594 279,372.4141 294,372.4141 L304,372.4141 " fill="none" style="stroke:#181818;stroke-width:1.0;"/><text fill="#000000" font-family="sans-serif" font-size="14" lengthAdjust="spacing" textLength="48" x="307" y="395.5576">FinOps</text><path d="M254,399.8594 L264,399.8594 C279,399.8594 279,390.7109 294,390.7109 L304,390.7109 " fill="none" style="stroke:#181818;stroke-width:1.0;"/><text fill="#000000" font-family="sans-serif" font-size="14" lengthAdjust="spacing" textLength="84" x="307" y="413.8545">Connectivity</text><path d="M254,399.8594 L264,399.8594 C279,399.8594 279,409.0078 294,409.0078 L304,409.0078 " fill="none" style="stroke:#181818;stroke-width:1.0;"/><text fill="#000000" font-family="sans-serif" font-size="14" lengthAdjust="spacing" textLength="169" x="307" y="432.1514">Policies to Organizations</text><path d="M254,399.8594 L264,399.8594 C279,399.8594 279,427.3047 294,427.3047 L304,427.3047 " fill="none" style="stroke:#181818;stroke-width:1.0;"/><path d="M54,265.8008 L64,265.8008 C79,265.8008 79,399.8594 94,399.8594 L104,399.8594 " fill="none" style="stroke:#181818;stroke-width:1.0;"/><rect fill="#D3D3D3" height="36.2969" rx="12.5" ry="12.5" style="stroke:#181818;stroke-width:1.5;" width="121" x="104" y="438.0078"/><text fill="#000000" font-family="sans-serif" font-size="14" lengthAdjust="spacing" textLength="101" x="114" y="461.0029">Identity Center</text><text fill="#000000" font-family="sans-serif" font-size="14" lengthAdjust="spacing" textLength="29" x="278" y="451.8545">SSO</text><path d="M225,456.1563 L235,456.1563 C250,456.1563 250,447.0078 265,447.0078 L275,447.0078 " fill="none" style="stroke:#181818;stroke-width:1.0;"/><text fill="#000000" font-family="sans-serif" font-size="14" lengthAdjust="spacing" textLength="185" x="278" y="470.1514">Depends on Organizations</text><path d="M225,456.1563 L235,456.1563 C250,456.1563 250,465.3047 265,465.3047 L275,465.3047 " fill="none" style="stroke:#181818;stroke-width:1.0;"/><path d="M54,265.8008 L64,265.8008 C79,265.8008 79,456.1563 94,456.1563 L104,456.1563 " fill="none" style="stroke:#181818;stroke-width:1.0;"/><text fill="#888888" font-family="sans-serif" font-size="10" lengthAdjust="spacing" textLength="230" x="168.5" y="493.5869">Dispon&#237;vel em: https://github.com/acnaweb/aws</text><!--SRC=[PLDBRjj03Dth54IwaOF4Shu8j8fZMsu22pOiELaKGJ6MQ7a0QKQOZrmNlL9FqOkL4yb9MaEBcI4VoST7wbuRfap5HLwnslCCDoN2oV0bWNDu7COdtaPAWmh6NDTI_FdTO0bOXR0rfjPX41JSREswdyagO9bWErm7RASzx_JRb-YElkZLfQ4t6MQys9gfOljNM6bKceodt-77aNEgfAqxRoh1Vc27MOPQ0naQJZVmQrdoZAFk7ILPoX8_SXmYZc2BBa6Bd6msc1dmXuPA6Iw5xeKmB4kv2yOenFx0mhd0Vzao0oZoMd9XD4mdQR2O9oc5pCMXOXknH2sjoj35IDZnieGH9RSLAaA_DHWKdxecUNAW4gqDVhKGEgKgcE0_sHkt5lkafJXgAuw6hVTHP0gPHkAJMSLDryBLm1cw3B5Syx9ZUWivfvaU2pN_N1dy-QhN1YHsxSOYhPF0NqLda6Djv1baLXlf6cnn4HVpGtlKko2TUVFEvp06CFBVIjuHaSSS1Qtf7aPqekfO97DeRsEiQIJQgVT_edjol6_wecJ2hE8PDAIi6-T5_t9mUTs_yjEjXGZNS7435xVXzI0StC33CWNdxdd-T35hBg6RPywrKNnjNOcUzyGQ1ajIWbSOWdlvQTo3P78mmaGqN4bH4NNlwJbkGV1LcgIMvWryUtt-m0qaj3xqspt7tXWtp9Q6GZEPSr64i4gZypjlnaHXMK65K7WZfx_Qao_v2m00]--></g></svg>