<?xml version="1.0" encoding="us-ascii" standalone="no"?><svg xmlns="http://www.w3.org/2000/svg" xmlns:xlink="http://www.w3.org/1999/xlink" contentStyleType="text/css" height="613px" preserveAspectRatio="none" style="width:1419px;height:613px;background:#FFFFFF;" version="1.1" viewBox="0 0 1419 613" width="1419px" zoomAndPan="magnify"><defs/><g><text fill="#000000" font-family="sans-serif" font-size="14" font-weight="bold" lengthAdjust="spacing" textLength="119" x="648.5" y="32.9951">AWS - Network</text><rect fill="#F8F8FF" height="36.2969" rx="12.5" ry="12.5" style="stroke:#181818;stroke-width:1.5;" width="77" x="694" y="300.0781"/><text fill="#000000" font-family="sans-serif" font-size="14" lengthAdjust="spacing" textLength="57" x="704" y="323.0732">Network</text><rect fill="#D3D3D3" height="36.2969" rx="12.5" ry="12.5" style="stroke:#181818;stroke-width:1.5;" width="48" x="821" y="300.0781"/><text fill="#000000" font-family="sans-serif" font-size="14" lengthAdjust="spacing" textLength="28" x="831" y="323.0732">VPC</text><rect fill="#D3D3D3" height="36.2969" rx="12.5" ry="12.5" style="stroke:#181818;stroke-width:1.5;" width="81" x="919" y="65.7422"/><text fill="#000000" font-family="sans-serif" font-size="14" lengthAdjust="spacing" textLength="61" x="929" y="88.7373">Features</text><text fill="#000000" font-family="sans-serif" font-size="14" lengthAdjust="spacing" textLength="97" x="1053" y="61.292">Region &lt; VPC</text><path d="M1000,83.8906 L1010,83.8906 C1025,83.8906 1025,56.4453 1040,56.4453 L1050,56.4453 " fill="none" style="stroke:#181818;stroke-width:1.0;"/><text fill="#000000" font-family="sans-serif" font-size="14" lengthAdjust="spacing" textLength="176" x="1053" y="79.5889">AZ &lt; Subnet &lt; Instances</text><path d="M1000,83.8906 L1010,83.8906 C1025,83.8906 1025,74.7422 1040,74.7422 L1050,74.7422 " fill="none" style="stroke:#181818;stroke-width:1.0;"/><text fill="#000000" font-family="sans-serif" font-size="14" lengthAdjust="spacing" textLength="48" x="1053" y="97.8857">AZ = 6</text><path d="M1000,83.8906 L1010,83.8906 C1025,83.8906 1025,93.0391 1040,93.0391 L1050,93.0391 " fill="none" style="stroke:#181818;stroke-width:1.0;"/><text fill="#000000" font-family="sans-serif" font-size="14" lengthAdjust="spacing" textLength="93" x="1053" y="116.1826">CIDR IPv4 /16</text><path d="M1000,83.8906 L1010,83.8906 C1025,83.8906 1025,111.3359 1040,111.3359 L1050,111.3359 " fill="none" style="stroke:#181818;stroke-width:1.0;"/><path d="M869,318.2266 L879,318.2266 C894,318.2266 894,83.8906 909,83.8906 L919,83.8906 " fill="none" style="stroke:#181818;stroke-width:1.0;"/><rect fill="#D3D3D3" height="36.2969" rx="12.5" ry="12.5" style="stroke:#181818;stroke-width:1.5;" width="137" x="919" y="130.4844"/><text fill="#000000" font-family="sans-serif" font-size="14" lengthAdjust="spacing" textLength="117" x="929" y="153.4795">Internet Gateway</text><text fill="#000000" font-family="sans-serif" font-size="14" lengthAdjust="spacing" textLength="62" x="1109" y="153.4795">0.0.0.0/0</text><path d="M1056,148.6328 L1066,148.6328 C1081,148.6328 1081,148.6328 1096,148.6328 L1106,148.6328 " fill="none" style="stroke:#181818;stroke-width:1.0;"/><path d="M869,318.2266 L879,318.2266 C894,318.2266 894,148.6328 909,148.6328 L919,148.6328 " fill="none" style="stroke:#181818;stroke-width:1.0;"/><rect fill="#D3D3D3" height="36.2969" rx="12.5" ry="12.5" style="stroke:#181818;stroke-width:1.5;" width="78" x="919" y="186.7813"/><text fill="#000000" font-family="sans-serif" font-size="14" lengthAdjust="spacing" textLength="58" x="929" y="209.7764">Subnets</text><text fill="#000000" font-family="sans-serif" font-size="14" lengthAdjust="spacing" textLength="187" x="1050" y="200.6279">172.31.16.0/20 = 4091 IPs</text><path d="M997,204.9297 L1007,204.9297 C1022,204.9297 1022,195.7813 1037,195.7813 L1047,195.7813 " fill="none" style="stroke:#181818;stroke-width:1.0;"/><text fill="#000000" font-family="sans-serif" font-size="14" lengthAdjust="spacing" textLength="187" x="1050" y="218.9248">172.31.67.0/20 = 4091 IPs</text><path d="M997,204.9297 L1007,204.9297 C1022,204.9297 1022,214.0781 1037,214.0781 L1047,214.0781 " fill="none" style="stroke:#181818;stroke-width:1.0;"/><path d="M869,318.2266 L879,318.2266 C894,318.2266 894,204.9297 909,204.9297 L919,204.9297 " fill="none" style="stroke:#181818;stroke-width:1.0;"/><rect fill="#D3D3D3" height="36.2969" rx="12.5" ry="12.5" style="stroke:#181818;stroke-width:1.5;" width="104" x="919" y="243.0781"/><text fill="#000000" font-family="sans-serif" font-size="14" lengthAdjust="spacing" textLength="84" x="929" y="266.0732">Route Table</text><text fill="#000000" font-family="sans-serif" font-size="14" lengthAdjust="spacing" textLength="279" x="1076" y="256.9248">172.31.0.0/16 Todas as subnets da VPC</text><path d="M1023,261.2266 L1033,261.2266 C1048,261.2266 1048,252.0781 1063,252.0781 L1073,252.0781 " fill="none" style="stroke:#181818;stroke-width:1.0;"/><text fill="#000000" font-family="sans-serif" font-size="14" lengthAdjust="spacing" textLength="27" x="1076" y="275.2217">IGW</text><path d="M1023,261.2266 L1033,261.2266 C1048,261.2266 1048,270.375 1063,270.375 L1073,270.375 " fill="none" style="stroke:#181818;stroke-width:1.0;"/><path d="M869,318.2266 L879,318.2266 C894,318.2266 894,261.2266 909,261.2266 L919,261.2266 " fill="none" style="stroke:#181818;stroke-width:1.0;"/><rect fill="#D3D3D3" height="36.2969" rx="12.5" ry="12.5" style="stroke:#181818;stroke-width:1.5;" width="164" x="919" y="299.375"/><text fill="#000000" font-family="sans-serif" font-size="14" lengthAdjust="spacing" textLength="144" x="929" y="322.3701">ACL (Firewall Subnet)</text><text fill="#000000" font-family="sans-serif" font-size="14" lengthAdjust="spacing" textLength="101" x="1136" y="322.3701">ACL -&gt; Subnet</text><path d="M1083,317.5234 L1093,317.5234 C1108,317.5234 1108,317.5234 1123,317.5234 L1133,317.5234 " fill="none" style="stroke:#181818;stroke-width:1.0;"/><path d="M869,318.2266 L879,318.2266 C894,318.2266 894,317.5234 909,317.5234 L919,317.5234 " fill="none" style="stroke:#181818;stroke-width:1.0;"/><rect fill="#D3D3D3" height="36.2969" rx="12.5" ry="12.5" style="stroke:#181818;stroke-width:1.5;" width="249" x="919" y="355.6719"/><text fill="#000000" font-family="sans-serif" font-size="14" lengthAdjust="spacing" textLength="229" x="929" y="378.667">Security Group (Firewall Instance)</text><text fill="#000000" font-family="sans-serif" font-size="14" lengthAdjust="spacing" textLength="186" x="1221" y="378.667">Security Group -&gt; Instance</text><path d="M1168,373.8203 L1178,373.8203 C1193,373.8203 1193,373.8203 1208,373.8203 L1218,373.8203 " fill="none" style="stroke:#181818;stroke-width:1.0;"/><path d="M869,318.2266 L879,318.2266 C894,318.2266 894,373.8203 909,373.8203 L919,373.8203 " fill="none" style="stroke:#181818;stroke-width:1.0;"/><rect fill="#D3D3D3" height="36.2969" rx="12.5" ry="12.5" style="stroke:#181818;stroke-width:1.5;" width="105" x="919" y="411.9688"/><text fill="#000000" font-family="sans-serif" font-size="14" lengthAdjust="spacing" textLength="85" x="929" y="434.9639">VPC Peering</text><text fill="#000000" font-family="sans-serif" font-size="14" lengthAdjust="spacing" textLength="99" x="1077" y="434.9639">Connect VPCs</text><path d="M1024,430.1172 L1034,430.1172 C1049,430.1172 1049,430.1172 1064,430.1172 L1074,430.1172 " fill="none" style="stroke:#181818;stroke-width:1.0;"/><path d="M869,318.2266 L879,318.2266 C894,318.2266 894,430.1172 909,430.1172 L919,430.1172 " fill="none" style="stroke:#181818;stroke-width:1.0;"/><text fill="#000000" font-family="sans-serif" font-size="14" lengthAdjust="spacing" textLength="13" x="922" y="472.2607">1.</text><text fill="#000000" font-family="sans-serif" font-size="14" lengthAdjust="spacing" textLength="57" x="939" y="472.2607">VPC = 2</text><path d="M869,318.2266 L879,318.2266 C894,318.2266 894,467.4141 909,467.4141 L919,467.4141 " fill="none" style="stroke:#181818;stroke-width:1.0;"/><rect fill="#D3D3D3" height="36.2969" rx="12.5" ry="12.5" style="stroke:#181818;stroke-width:1.5;" width="122" x="919" y="486.5625"/><text fill="#000000" font-family="sans-serif" font-size="14" lengthAdjust="spacing" textLength="102" x="929" y="509.5576">VPC Endpoints</text><text fill="#000000" font-family="sans-serif" font-size="14" lengthAdjust="spacing" textLength="297" x="1094" y="491.2607">Problema: Connect to Service using Private</text><path d="M1041,504.7109 L1051,504.7109 C1066,504.7109 1066,486.4141 1081,486.4141 L1091,486.4141 " fill="none" style="stroke:#181818;stroke-width:1.0;"/><text fill="#000000" font-family="sans-serif" font-size="14" lengthAdjust="spacing" textLength="172" x="1094" y="509.5576">Gateway: S3, DynamoDB</text><path d="M1041,504.7109 L1051,504.7109 C1066,504.7109 1066,504.7109 1081,504.7109 L1091,504.7109 " fill="none" style="stroke:#181818;stroke-width:1.0;"/><text fill="#000000" font-family="sans-serif" font-size="14" lengthAdjust="spacing" textLength="114" x="1094" y="527.8545">Interface: others</text><path d="M1041,504.7109 L1051,504.7109 C1066,504.7109 1066,523.0078 1081,523.0078 L1091,523.0078 " fill="none" style="stroke:#181818;stroke-width:1.0;"/><path d="M869,318.2266 L879,318.2266 C894,318.2266 894,504.7109 909,504.7109 L919,504.7109 " fill="none" style="stroke:#181818;stroke-width:1.0;"/><rect fill="#D3D3D3" height="36.2969" rx="12.5" ry="12.5" style="stroke:#181818;stroke-width:1.5;" width="120" x="919" y="542.8594"/><text fill="#000000" font-family="sans-serif" font-size="14" lengthAdjust="spacing" textLength="100" x="929" y="565.8545">VPC Flow Logs</text><text fill="#000000" font-family="sans-serif" font-size="14" lengthAdjust="spacing" textLength="85" x="1092" y="556.7061">Check traffic</text><path d="M1039,561.0078 L1049,561.0078 C1064,561.0078 1064,551.8594 1079,551.8594 L1089,551.8594 " fill="none" style="stroke:#181818;stroke-width:1.0;"/><text fill="#000000" font-family="sans-serif" font-size="14" lengthAdjust="spacing" textLength="84" x="1092" y="575.0029">Trobleshoot</text><path d="M1039,561.0078 L1049,561.0078 C1064,561.0078 1064,570.1563 1079,570.1563 L1089,570.1563 " fill="none" style="stroke:#181818;stroke-width:1.0;"/><path d="M869,318.2266 L879,318.2266 C894,318.2266 894,561.0078 909,561.0078 L919,561.0078 " fill="none" style="stroke:#181818;stroke-width:1.0;"/><path d="M771,318.2266 L781,318.2266 C796,318.2266 796,318.2266 811,318.2266 L821,318.2266 " fill="none" style="stroke:#181818;stroke-width:1.0;"/><rect fill="#D3D3D3" height="36.2969" rx="12.5" ry="12.5" style="stroke:#181818;stroke-width:1.5;" width="48" x="596" y="207.1875"/><text fill="#000000" font-family="sans-serif" font-size="14" lengthAdjust="spacing" textLength="28" x="606" y="230.1826">VPN</text><rect fill="#D3D3D3" height="36.2969" rx="12.5" ry="12.5" style="stroke:#181818;stroke-width:1.5;" width="111" x="435" y="150.8906"/><text fill="#000000" font-family="sans-serif" font-size="14" lengthAdjust="spacing" textLength="91" x="445" y="173.8857">VPN Gateway</text><text fill="#000000" font-family="sans-serif" font-size="14" lengthAdjust="spacing" textLength="372" x="10" y="173.8857">Customer Gateway &lt;Internet&gt; Virtual Private Gateway</text><path d="M435,169.0391 L425,169.0391 C410,169.0391 410,169.0391 395,169.0391 L385,169.0391 " fill="none" style="stroke:#181818;stroke-width:1.0;"/><path d="M596,225.3359 L586,225.3359 C571,225.3359 571,169.0391 556,169.0391 L546,169.0391 " fill="none" style="stroke:#181818;stroke-width:1.0;"/><rect fill="#D3D3D3" height="36.2969" rx="12.5" ry="12.5" style="stroke:#181818;stroke-width:1.5;" width="91" x="455" y="207.1875"/><text fill="#000000" font-family="sans-serif" font-size="14" lengthAdjust="spacing" textLength="71" x="465" y="230.1826">VPN Client</text><text fill="#000000" font-family="sans-serif" font-size="14" lengthAdjust="spacing" textLength="90" x="312" y="211.8857">Remote user</text><path d="M455,225.3359 L445,225.3359 C430,225.3359 430,207.0391 415,207.0391 L405,207.0391 " fill="none" style="stroke:#181818;stroke-width:1.0;"/><text fill="#000000" font-family="sans-serif" font-size="14" lengthAdjust="spacing" textLength="175" x="227" y="230.1826">Software: AWS Client VPN</text><path d="M455,225.3359 L445,225.3359 C430,225.3359 430,225.3359 415,225.3359 L405,225.3359 " fill="none" style="stroke:#181818;stroke-width:1.0;"/><text fill="#000000" font-family="sans-serif" font-size="14" lengthAdjust="spacing" textLength="159" x="243" y="248.4795">Connect: VPN Gateway</text><path d="M455,225.3359 L445,225.3359 C430,225.3359 430,243.6328 415,243.6328 L405,243.6328 " fill="none" style="stroke:#181818;stroke-width:1.0;"/><path d="M596,225.3359 L586,225.3359 C571,225.3359 571,225.3359 556,225.3359 L546,225.3359 " fill="none" style="stroke:#181818;stroke-width:1.0;"/><rect fill="#D3D3D3" height="36.2969" rx="12.5" ry="12.5" style="stroke:#181818;stroke-width:1.5;" width="126" x="420" y="263.4844"/><text fill="#000000" font-family="sans-serif" font-size="14" lengthAdjust="spacing" textLength="106" x="430" y="286.4795">Site to Site VPN</text><text fill="#000000" font-family="sans-serif" font-size="14" lengthAdjust="spacing" textLength="71" x="296" y="268.1826">Enterprise</text><path d="M420,281.6328 L410,281.6328 C395,281.6328 395,263.3359 380,263.3359 L370,263.3359 " fill="none" style="stroke:#181818;stroke-width:1.0;"/><text fill="#000000" font-family="sans-serif" font-size="14" lengthAdjust="spacing" textLength="143" x="224" y="286.4795">Link Internet Trusted</text><path d="M420,281.6328 L410,281.6328 C395,281.6328 395,281.6328 380,281.6328 L370,281.6328 " fill="none" style="stroke:#181818;stroke-width:1.0;"/><text fill="#000000" font-family="sans-serif" font-size="14" lengthAdjust="spacing" textLength="160" x="207" y="304.7764">Link Internet Dedicated</text><path d="M420,281.6328 L410,281.6328 C395,281.6328 395,299.9297 380,299.9297 L370,299.9297 " fill="none" style="stroke:#181818;stroke-width:1.0;"/><path d="M596,225.3359 L586,225.3359 C571,225.3359 571,281.6328 556,281.6328 L546,281.6328 " fill="none" style="stroke:#181818;stroke-width:1.0;"/><path d="M694,318.2266 L684,318.2266 C669,318.2266 669,225.3359 654,225.3359 L644,225.3359 " fill="none" style="stroke:#181818;stroke-width:1.0;"/><rect fill="#D3D3D3" height="36.2969" rx="12.5" ry="12.5" style="stroke:#181818;stroke-width:1.5;" width="132" x="512" y="328.2266"/><text fill="#000000" font-family="sans-serif" font-size="14" lengthAdjust="spacing" textLength="112" x="522" y="351.2217">AWS Private Link</text><text fill="#000000" font-family="sans-serif" font-size="14" lengthAdjust="spacing" textLength="240" x="219" y="323.7764">UC: Third software at AWS Account</text><path d="M512,346.375 L502,346.375 C487,346.375 487,318.9297 472,318.9297 L462,318.9297 " fill="none" style="stroke:#181818;stroke-width:1.0;"/><text fill="#000000" font-family="sans-serif" font-size="14" lengthAdjust="spacing" textLength="163" x="296" y="342.0732">Connect AWS Accounts</text><path d="M512,346.375 L502,346.375 C487,346.375 487,337.2266 472,337.2266 L462,337.2266 " fill="none" style="stroke:#181818;stroke-width:1.0;"/><text fill="#000000" font-family="sans-serif" font-size="14" lengthAdjust="spacing" textLength="213" x="246" y="360.3701">Reduce VPC Peering (scalable)</text><path d="M512,346.375 L502,346.375 C487,346.375 487,355.5234 472,355.5234 L462,355.5234 " fill="none" style="stroke:#181818;stroke-width:1.0;"/><text fill="#000000" font-family="sans-serif" font-size="14" lengthAdjust="spacing" textLength="157" x="302" y="378.667">ALB &lt;Private Link&gt; ENI</text><path d="M512,346.375 L502,346.375 C487,346.375 487,373.8203 472,373.8203 L462,373.8203 " fill="none" style="stroke:#181818;stroke-width:1.0;"/><path d="M694,318.2266 L684,318.2266 C669,318.2266 669,346.375 654,346.375 L644,346.375 " fill="none" style="stroke:#181818;stroke-width:1.0;"/><rect fill="#D3D3D3" height="36.2969" rx="12.5" ry="12.5" style="stroke:#181818;stroke-width:1.5;" width="159" x="485" y="392.9688"/><text fill="#000000" font-family="sans-serif" font-size="14" lengthAdjust="spacing" textLength="139" x="495" y="415.9639">AWS Direct Connect</text><text fill="#000000" font-family="sans-serif" font-size="14" lengthAdjust="spacing" textLength="265" x="167" y="415.9639">UC: Dedicated link Enterprise &lt;&gt; AWS</text><path d="M485,411.1172 L475,411.1172 C460,411.1172 460,411.1172 445,411.1172 L435,411.1172 " fill="none" style="stroke:#181818;stroke-width:1.0;"/><path d="M694,318.2266 L684,318.2266 C669,318.2266 669,411.1172 654,411.1172 L644,411.1172 " fill="none" style="stroke:#181818;stroke-width:1.0;"/><rect fill="#D3D3D3" height="36.2969" rx="12.5" ry="12.5" style="stroke:#181818;stroke-width:1.5;" width="165" x="479" y="449.2656"/><text fill="#000000" font-family="sans-serif" font-size="14" lengthAdjust="spacing" textLength="145" x="489" y="472.2607">AWS Transit Gateway</text><text fill="#000000" font-family="sans-serif" font-size="14" lengthAdjust="spacing" textLength="111" x="315" y="453.9639">UC: Graph VPCs</text><path d="M479,467.4141 L469,467.4141 C454,467.4141 454,449.1172 439,449.1172 L429,449.1172 " fill="none" style="stroke:#181818;stroke-width:1.0;"/><text fill="#000000" font-family="sans-serif" font-size="14" lengthAdjust="spacing" textLength="13" x="352" y="472.2607">1.</text><text fill="#000000" font-family="sans-serif" font-size="14" lengthAdjust="spacing" textLength="57" x="369" y="472.2607">VPC &gt; 2</text><path d="M479,467.4141 L469,467.4141 C454,467.4141 454,467.4141 439,467.4141 L429,467.4141 " fill="none" style="stroke:#181818;stroke-width:1.0;"/><text fill="#000000" font-family="sans-serif" font-size="14" lengthAdjust="spacing" textLength="206" x="220" y="490.5576">Hub and Spoke (Star schema)</text><path d="M479,467.4141 L469,467.4141 C454,467.4141 454,485.7109 439,485.7109 L429,485.7109 " fill="none" style="stroke:#181818;stroke-width:1.0;"/><path d="M694,318.2266 L684,318.2266 C669,318.2266 669,467.4141 654,467.4141 L644,467.4141 " fill="none" style="stroke:#181818;stroke-width:1.0;"/><text fill="#888888" font-family="sans-serif" font-size="10" lengthAdjust="spacing" textLength="230" x="593" y="598.4385">Dispon&#237;vel em: https://github.com/acnaweb/aws</text><!--SRC=[RLNRRjf047ttLupQ5wWQm8IGr4fH2GH2HI849fLQLTLYBtWLUnVj1PIFwbVqnpgBlLoDaM3dFcVchByfJQJE68ypilOypNHAuKFtnmoku8NghP1l7xob49fAw3Er5lpVtmrDWMO195glLL2lhvXEpA8MYQnE8awsT54dM-Lvdtvz7DpXC_ZjGg4CXMEsIlHGalVVy3hfMTcfS429Df8gg_Zq1wPqnGI7UsiCXQpx4yypi-1KuvyHnovujFT0xLTe5uVUg3-5qMJJWhhVlamsujYQ3JCaccx9U-7LgEsUUWCkNVAyBfb_swnT-pM_ZTRD1YPkDRxucF1Ctxwzq5y4dWgZAOHaaT9JPrk9tuPGn4G1VbLU0SHaXs1kEnh-k0pPxOsXCc0IMqlJelAgWmbrLvr2MD8cZOna-Xs6KfZrKHG7jujpPeWXdSLbK3l32QMIyPMRZ-2SHjfgTf3zWO_Mw2iqoxqVURmMZE_ndqY1U6Kas4VI0akI6nPHC0eJeGdRu7GBXsBG0SokFqF_dPDCz1ySXdORbYIY0GYTKAdAQnYaOWjZiN8rz18QlO6MPBbaaTlHS5UOIf0yk4GfNMfGBAOb77Wfo_9ojf4zexJ8a8Q56ExTwdRWbKbjIEeQtNkMXksbZ7Az9rU6t4QSg7JJ54kz9H8HiBT0RhohyMHSmKc5bxl3CAYTW_qzE3_QYjUIAJUBCUDl1mg64dkaSQckJsCM4Qizny-MwHgtFlaIpNi1X0cJCQYY8I1wPzkD8c5o00xRTwGejd1AOnFHuuM5Yef8QjbPpKswumUuFqxTWSUNKMc1VIGFfYdI7KhSjmMfRVS04Dnth6Dfi50IhjZ9bPL7GvDrSiwa3Z9fTteo2o0yXjbQl56epF3c1nKbo9sgXvzl55y2xaKmIGdNy-SnR904zlhrQyr6irMxheI9mHjw0VuD-EsWrGWQD_0m3S6ggrvbE1blceYvaGXUp9IMR64qHgXwtyc6m1GHPXbkbprLmkSgp1wT4DlVC2buPlVp- -jpRWHFGcF9UcVSRbqzOEUMtqY5rsUlJvV4f1fT8n7Za0AOXuEhEszC-CgG5IQYtElPkKga_7ps7m00]--></g></svg>