<?xml version="1.0" encoding="us-ascii" standalone="no"?><svg xmlns="http://www.w3.org/2000/svg" xmlns:xlink="http://www.w3.org/1999/xlink" contentStyleType="text/css" height="349px" preserveAspectRatio="none" style="width:1139px;height:349px;background:#FFFFFF;" version="1.1" viewBox="0 0 1139 349" width="1139px" zoomAndPan="magnify"><defs/><g><text fill="#000000" font-family="sans-serif" font-size="14" font-weight="bold" lengthAdjust="spacing" textLength="187" x="474.5" y="32.9951">AWS - Cloud Computing</text><rect fill="#F8F8FF" height="36.2969" rx="12.5" ry="12.5" style="stroke:#181818;stroke-width:1.5;" width="140" x="563" y="167.7813"/><text fill="#000000" font-family="sans-serif" font-size="14" lengthAdjust="spacing" textLength="120" x="573" y="190.7764">Cloud Computing</text><rect fill="#D3D3D3" height="36.2969" rx="12.5" ry="12.5" style="stroke:#181818;stroke-width:1.5;" width="71" x="753" y="85.4453"/><text fill="#000000" font-family="sans-serif" font-size="14" lengthAdjust="spacing" textLength="51" x="763" y="108.4404">Historic</text><rect fill="#F1F1F1" height="36.2969" rx="12.5" ry="12.5" style="stroke:#181818;stroke-width:1.5;" width="66" x="874" y="57.2969"/><text fill="#000000" font-family="sans-serif" font-size="14" lengthAdjust="spacing" textLength="46" x="884" y="80.292">Before</text><text fill="#000000" font-family="sans-serif" font-size="14" lengthAdjust="spacing" textLength="84" x="993" y="71.1436">Server room</text><path d="M940,75.4453 L950,75.4453 C965,75.4453 965,66.2969 980,66.2969 L990,66.2969 " fill="none" style="stroke:#181818;stroke-width:1.0;"/><text fill="#000000" font-family="sans-serif" font-size="14" lengthAdjust="spacing" textLength="27" x="993" y="89.4404">You</text><path d="M940,75.4453 L950,75.4453 C965,75.4453 965,84.5938 980,84.5938 L990,84.5938 " fill="none" style="stroke:#181818;stroke-width:1.0;"/><path d="M824,103.5938 L834,103.5938 C849,103.5938 849,75.4453 864,75.4453 L874,75.4453 " fill="none" style="stroke:#181818;stroke-width:1.0;"/><rect fill="#F1F1F1" height="36.2969" rx="12.5" ry="12.5" style="stroke:#181818;stroke-width:1.5;" width="52" x="874" y="113.5938"/><text fill="#000000" font-family="sans-serif" font-size="14" lengthAdjust="spacing" textLength="32" x="884" y="136.5889">After</text><text fill="#000000" font-family="sans-serif" font-size="14" lengthAdjust="spacing" textLength="91" x="979" y="118.292">Data Centers</text><path d="M926,131.7422 L936,131.7422 C951,131.7422 951,113.4453 966,113.4453 L976,113.4453 " fill="none" style="stroke:#181818;stroke-width:1.0;"/><text fill="#000000" font-family="sans-serif" font-size="14" lengthAdjust="spacing" textLength="56" x="979" y="136.5889">Provider</text><path d="M926,131.7422 L936,131.7422 C951,131.7422 951,131.7422 966,131.7422 L976,131.7422 " fill="none" style="stroke:#181818;stroke-width:1.0;"/><text fill="#000000" font-family="sans-serif" font-size="14" lengthAdjust="spacing" textLength="148" x="979" y="154.8857">Security, energy, infra</text><path d="M926,131.7422 L936,131.7422 C951,131.7422 951,150.0391 966,150.0391 L976,150.0391 " fill="none" style="stroke:#181818;stroke-width:1.0;"/><path d="M824,103.5938 L834,103.5938 C849,103.5938 849,131.7422 864,131.7422 L874,131.7422 " fill="none" style="stroke:#181818;stroke-width:1.0;"/><path d="M703,185.9297 L713,185.9297 C728,185.9297 728,103.5938 743,103.5938 L753,103.5938 " fill="none" style="stroke:#181818;stroke-width:1.0;"/><rect fill="#D3D3D3" height="36.2969" rx="12.5" ry="12.5" style="stroke:#181818;stroke-width:1.5;" width="101" x="753" y="224.0781"/><text fill="#000000" font-family="sans-serif" font-size="14" lengthAdjust="spacing" textLength="81" x="763" y="247.0732">Advantages</text><text fill="#000000" font-family="sans-serif" font-size="14" lengthAdjust="spacing" textLength="85" x="907" y="173.8857">Cost reduce</text><path d="M854,242.2266 L864,242.2266 C879,242.2266 879,169.0391 894,169.0391 L904,169.0391 " fill="none" style="stroke:#181818;stroke-width:1.0;"/><text fill="#000000" font-family="sans-serif" font-size="14" lengthAdjust="spacing" textLength="89" x="907" y="192.1826">Maintenance</text><path d="M854,242.2266 L864,242.2266 C879,242.2266 879,187.3359 894,187.3359 L904,187.3359 " fill="none" style="stroke:#181818;stroke-width:1.0;"/><text fill="#000000" font-family="sans-serif" font-size="14" lengthAdjust="spacing" textLength="54" x="907" y="210.4795">Storage</text><path d="M854,242.2266 L864,242.2266 C879,242.2266 879,205.6328 894,205.6328 L904,205.6328 " fill="none" style="stroke:#181818;stroke-width:1.0;"/><text fill="#000000" font-family="sans-serif" font-size="14" lengthAdjust="spacing" textLength="83" x="907" y="228.7764">Global scale</text><path d="M854,242.2266 L864,242.2266 C879,242.2266 879,223.9297 894,223.9297 L904,223.9297 " fill="none" style="stroke:#181818;stroke-width:1.0;"/><text fill="#000000" font-family="sans-serif" font-size="14" lengthAdjust="spacing" textLength="88" x="907" y="247.0732">Performance</text><path d="M854,242.2266 L864,242.2266 C879,242.2266 879,242.2266 894,242.2266 L904,242.2266 " fill="none" style="stroke:#181818;stroke-width:1.0;"/><text fill="#000000" font-family="sans-serif" font-size="14" lengthAdjust="spacing" textLength="124" x="907" y="265.3701">Velocity to startup</text><path d="M854,242.2266 L864,242.2266 C879,242.2266 879,260.5234 894,260.5234 L904,260.5234 " fill="none" style="stroke:#181818;stroke-width:1.0;"/><text fill="#000000" font-family="sans-serif" font-size="14" lengthAdjust="spacing" textLength="71" x="907" y="283.667">Produtivity</text><path d="M854,242.2266 L864,242.2266 C879,242.2266 879,278.8203 894,278.8203 L904,278.8203 " fill="none" style="stroke:#181818;stroke-width:1.0;"/><text fill="#000000" font-family="sans-serif" font-size="14" lengthAdjust="spacing" textLength="55" x="907" y="301.9639">Security</text><path d="M854,242.2266 L864,242.2266 C879,242.2266 879,297.1172 894,297.1172 L904,297.1172 " fill="none" style="stroke:#181818;stroke-width:1.0;"/><text fill="#000000" font-family="sans-serif" font-size="14" lengthAdjust="spacing" textLength="161" x="907" y="320.2607">Flexibility (remote work)</text><path d="M854,242.2266 L864,242.2266 C879,242.2266 879,315.4141 894,315.4141 L904,315.4141 " fill="none" style="stroke:#181818;stroke-width:1.0;"/><path d="M703,185.9297 L713,185.9297 C728,185.9297 728,242.2266 743,242.2266 L753,242.2266 " fill="none" style="stroke:#181818;stroke-width:1.0;"/><rect fill="#D3D3D3" height="36.2969" rx="12.5" ry="12.5" style="stroke:#181818;stroke-width:1.5;" width="108" x="405" y="139.6328"/><text fill="#000000" font-family="sans-serif" font-size="14" lengthAdjust="spacing" textLength="88" x="415" y="162.6279">Service Type</text><text fill="#000000" font-family="sans-serif" font-size="14" lengthAdjust="spacing" textLength="189" x="163" y="144.3311">SaaS -App/Software Service</text><path d="M405,157.7813 L395,157.7813 C380,157.7813 380,139.4844 365,139.4844 L355,139.4844 " fill="none" style="stroke:#181818;stroke-width:1.0;"/><text fill="#000000" font-family="sans-serif" font-size="14" lengthAdjust="spacing" textLength="299" x="53" y="162.6279">PaaS - Rent software servers/VMs/Storages</text><path d="M405,157.7813 L395,157.7813 C380,157.7813 380,157.7813 365,157.7813 L355,157.7813 " fill="none" style="stroke:#181818;stroke-width:1.0;"/><text fill="#000000" font-family="sans-serif" font-size="14" lengthAdjust="spacing" textLength="298" x="54" y="180.9248">IaaS - Rent hardware servers/VMs/Storages</text><path d="M405,157.7813 L395,157.7813 C380,157.7813 380,176.0781 365,176.0781 L355,176.0781 " fill="none" style="stroke:#181818;stroke-width:1.0;"/><path d="M563,185.9297 L553,185.9297 C538,185.9297 538,157.7813 523,157.7813 L513,157.7813 " fill="none" style="stroke:#181818;stroke-width:1.0;"/><rect fill="#D3D3D3" height="36.2969" rx="12.5" ry="12.5" style="stroke:#181818;stroke-width:1.5;" width="98" x="415" y="195.9297"/><text fill="#000000" font-family="sans-serif" font-size="14" lengthAdjust="spacing" textLength="78" x="425" y="218.9248">Cloud Type</text><text fill="#000000" font-family="sans-serif" font-size="14" lengthAdjust="spacing" textLength="339" x="23" y="200.6279">Public - AWS, Azure, GCP, OCI (shared resources)</text><path d="M415,214.0781 L405,214.0781 C390,214.0781 390,195.7813 375,195.7813 L365,195.7813 " fill="none" style="stroke:#181818;stroke-width:1.0;"/><text fill="#000000" font-family="sans-serif" font-size="14" lengthAdjust="spacing" textLength="352" x="10" y="218.9248">Private - Banks/Governments (exclusive resources)</text><path d="M415,214.0781 L405,214.0781 C390,214.0781 390,214.0781 375,214.0781 L365,214.0781 " fill="none" style="stroke:#181818;stroke-width:1.0;"/><text fill="#000000" font-family="sans-serif" font-size="14" lengthAdjust="spacing" textLength="328" x="34" y="237.2217">Hibrid - Public + Private - (newtwork connected)</text><path d="M415,214.0781 L405,214.0781 C390,214.0781 390,232.375 375,232.375 L365,232.375 " fill="none" style="stroke:#181818;stroke-width:1.0;"/><path d="M563,185.9297 L553,185.9297 C538,185.9297 538,214.0781 523,214.0781 L513,214.0781 " fill="none" style="stroke:#181818;stroke-width:1.0;"/><text fill="#888888" font-family="sans-serif" font-size="10" lengthAdjust="spacing" textLength="230" x="453" y="333.8447">Dispon&#237;vel em: https://github.com/acnaweb/aws</text><!--SRC=[TLFRJjj047tVhnYrBmvDC510o4yaWGHGeaOufAegXDRsE5cnthNsuf3-Kx-YFzPnRBSKLEN1sJDdPixSBgtZnXL2PGKl6NF2IOGFmwyn360ijSzWh8lIEw7M7rYkjKC3LyAMMltwMQ44B2BOE5VQA0pNmcrySfZg8kIfubjCGhwrZ1ry_pYveD_ayMr8if5n9jORDpLyzmWtmZfjH5eR3c24kJPO_pruWXXDHScDraMBVDE-uGrpajM2Lznn6ACYnBRGmkXAP7yOCQRU2BVh0oeqQ_eAbHl-JiimgxXoV8rsd-M9P5i71ZEVOWFCkQ0yYgiEY4ayEJIFgTG9bs1JBbjaWOOAAlxoLoXrIbB0QTWFmfUiavnHXogoiNz4Dw-9n1UH25cx1WOB6WjijNdkCIOnTs2ft7Vrr0qKAS9oLs9RKSmv3NfObc6iSxVb1ZjMAsDlXtjg9zYEOVU3iE5gRiEsODlGRr_HDzna_wU_rTRinIjb2vz8aL8mMiK-37zuWtsOZXTz-3A-XS1IUCne65PxawBjTMqJ5QTU3634rRCDfvfIguBqM0Zm9PNUYWhVkTs8n8YClDgidru52XHkNTrRIBLIc3hCgCkNI0VJ7Sr2qfuyp6TGrocqWkF3awEJqyFFmNBZOO8979_1yNbqUXGTdS7eVWcrkSU2wM9MdK2Z1J9QVICIchfMFNR7AmxtNZbHO0JrArZEUn1VTo1SgqeOlI-EtQtc3Gbkj8jBxVRayzF1IBZkS5PpTeKvzzAHQwepEhy87fQJmGMRSRNsD9U8BeADDIKmExB5lm40]--></g></svg>